<mxfile host="app.diagrams.net" modified="2024-04-30T20:37:50.337Z" agent="Mozilla/5.0 (Macintosh; Intel Mac OS X 10.15; rv:125.0) Gecko/20100101 Firefox/125.0" etag="z-Gv7QnElieA6VCWPU6l" version="24.3.1" type="device">
  <diagram name="Page-1" id="QhQbgCrOSmnq601le5rz">
    <mxGraphModel dx="998" dy="700" grid="1" gridSize="10" guides="1" tooltips="1" connect="1" arrows="1" fold="1" page="1" pageScale="1" pageWidth="850" pageHeight="1100" math="0" shadow="0">
      <root>
        <mxCell id="0" />
        <mxCell id="1" parent="0" />
        <mxCell id="15li7BkHGeq0RY40I_Cv-36" style="edgeStyle=orthogonalEdgeStyle;rounded=0;orthogonalLoop=1;jettySize=auto;html=1;strokeColor=#FF0000;entryX=0;entryY=0.75;entryDx=0;entryDy=0;" edge="1" parent="1" target="15li7BkHGeq0RY40I_Cv-12">
          <mxGeometry relative="1" as="geometry">
            <mxPoint x="550" y="450" as="sourcePoint" />
            <mxPoint x="610" y="443" as="targetPoint" />
            <Array as="points">
              <mxPoint x="550" y="445" />
            </Array>
          </mxGeometry>
        </mxCell>
        <mxCell id="15li7BkHGeq0RY40I_Cv-35" style="edgeStyle=orthogonalEdgeStyle;rounded=0;orthogonalLoop=1;jettySize=auto;html=1;entryX=-0.006;entryY=0.668;entryDx=0;entryDy=0;entryPerimeter=0;strokeColor=#009900;" edge="1" parent="1" target="15li7BkHGeq0RY40I_Cv-12">
          <mxGeometry relative="1" as="geometry">
            <mxPoint x="550" y="435" as="sourcePoint" />
            <mxPoint x="609.9999999999999" y="439.9599999999999" as="targetPoint" />
            <Array as="points">
              <mxPoint x="550" y="430" />
              <mxPoint x="609" y="430" />
            </Array>
          </mxGeometry>
        </mxCell>
        <mxCell id="15li7BkHGeq0RY40I_Cv-29" style="edgeStyle=orthogonalEdgeStyle;rounded=0;orthogonalLoop=1;jettySize=auto;html=1;exitX=0.999;exitY=0.333;exitDx=0;exitDy=0;entryX=0;entryY=0.528;entryDx=0;entryDy=0;entryPerimeter=0;exitPerimeter=0;strokeColor=#FF0000;" edge="1" parent="1" source="15li7BkHGeq0RY40I_Cv-9" target="15li7BkHGeq0RY40I_Cv-12">
          <mxGeometry relative="1" as="geometry">
            <Array as="points" />
          </mxGeometry>
        </mxCell>
        <mxCell id="15li7BkHGeq0RY40I_Cv-21" style="edgeStyle=orthogonalEdgeStyle;rounded=0;orthogonalLoop=1;jettySize=auto;html=1;entryX=-0.011;entryY=0.417;entryDx=0;entryDy=0;entryPerimeter=0;strokeColor=#FF0000;" edge="1" parent="1" target="15li7BkHGeq0RY40I_Cv-12">
          <mxGeometry relative="1" as="geometry">
            <mxPoint x="550" y="385" as="sourcePoint" />
            <mxPoint x="609.1200000000001" y="379.94" as="targetPoint" />
            <Array as="points">
              <mxPoint x="550" y="385" />
              <mxPoint x="570" y="385" />
            </Array>
          </mxGeometry>
        </mxCell>
        <mxCell id="15li7BkHGeq0RY40I_Cv-30" style="edgeStyle=orthogonalEdgeStyle;rounded=0;orthogonalLoop=1;jettySize=auto;html=1;entryX=-0.012;entryY=0.367;entryDx=0;entryDy=0;entryPerimeter=0;strokeColor=#009900;" edge="1" parent="1" target="15li7BkHGeq0RY40I_Cv-12">
          <mxGeometry relative="1" as="geometry">
            <mxPoint x="550" y="380" as="sourcePoint" />
            <Array as="points">
              <mxPoint x="550" y="376" />
            </Array>
          </mxGeometry>
        </mxCell>
        <mxCell id="15li7BkHGeq0RY40I_Cv-2" value="&lt;div&gt;&lt;b&gt;Page Table&lt;/b&gt;&lt;/div&gt;&lt;div&gt;(controlled by kernel)&lt;br&gt;&lt;/div&gt;" style="swimlane;fontStyle=0;childLayout=stackLayout;horizontal=1;startSize=30;horizontalStack=0;resizeParent=1;resizeParentMax=0;resizeLast=0;collapsible=1;marginBottom=0;whiteSpace=wrap;html=1;" vertex="1" parent="1">
          <mxGeometry x="210" y="320" width="150" height="150" as="geometry" />
        </mxCell>
        <mxCell id="15li7BkHGeq0RY40I_Cv-3" value="page 0: read-only, &lt;b&gt;key 0&lt;/b&gt;" style="text;strokeColor=none;fillColor=none;align=left;verticalAlign=middle;spacingLeft=4;spacingRight=4;overflow=hidden;points=[[0,0.5],[1,0.5]];portConstraint=eastwest;rotatable=0;whiteSpace=wrap;html=1;" vertex="1" parent="15li7BkHGeq0RY40I_Cv-2">
          <mxGeometry y="30" width="150" height="30" as="geometry" />
        </mxCell>
        <mxCell id="15li7BkHGeq0RY40I_Cv-4" value="page 1: read/write, &lt;b&gt;key 0&lt;/b&gt;" style="text;strokeColor=none;fillColor=none;align=left;verticalAlign=middle;spacingLeft=4;spacingRight=4;overflow=hidden;points=[[0,0.5],[1,0.5]];portConstraint=eastwest;rotatable=0;whiteSpace=wrap;html=1;" vertex="1" parent="15li7BkHGeq0RY40I_Cv-2">
          <mxGeometry y="60" width="150" height="30" as="geometry" />
        </mxCell>
        <mxCell id="15li7BkHGeq0RY40I_Cv-5" value="page 2: read/write, &lt;b&gt;key 1&lt;/b&gt;" style="text;strokeColor=none;fillColor=none;align=left;verticalAlign=middle;spacingLeft=4;spacingRight=4;overflow=hidden;points=[[0,0.5],[1,0.5]];portConstraint=eastwest;rotatable=0;whiteSpace=wrap;html=1;" vertex="1" parent="15li7BkHGeq0RY40I_Cv-2">
          <mxGeometry y="90" width="150" height="30" as="geometry" />
        </mxCell>
        <mxCell id="15li7BkHGeq0RY40I_Cv-6" value="page 3: read/write, &lt;b&gt;key 2&lt;/b&gt;" style="text;strokeColor=none;fillColor=none;align=left;verticalAlign=middle;spacingLeft=4;spacingRight=4;overflow=hidden;points=[[0,0.5],[1,0.5]];portConstraint=eastwest;rotatable=0;whiteSpace=wrap;html=1;" vertex="1" parent="15li7BkHGeq0RY40I_Cv-2">
          <mxGeometry y="120" width="150" height="30" as="geometry" />
        </mxCell>
        <mxCell id="15li7BkHGeq0RY40I_Cv-7" value="&lt;div&gt;&lt;b&gt;PKRU&lt;/b&gt;&lt;/div&gt;&lt;div&gt;(controlled by application)&lt;br&gt;&lt;/div&gt;" style="swimlane;fontStyle=0;childLayout=stackLayout;horizontal=1;startSize=30;horizontalStack=0;resizeParent=1;resizeParentMax=0;resizeLast=0;collapsible=1;marginBottom=0;whiteSpace=wrap;html=1;" vertex="1" parent="1">
          <mxGeometry x="410" y="335" width="140" height="120" as="geometry" />
        </mxCell>
        <mxCell id="15li7BkHGeq0RY40I_Cv-8" value="&lt;b&gt;key 0&lt;/b&gt;: deny access" style="text;strokeColor=none;fillColor=none;align=left;verticalAlign=middle;spacingLeft=4;spacingRight=4;overflow=hidden;points=[[0,0.5],[1,0.5]];portConstraint=eastwest;rotatable=0;whiteSpace=wrap;html=1;" vertex="1" parent="15li7BkHGeq0RY40I_Cv-7">
          <mxGeometry y="30" width="140" height="30" as="geometry" />
        </mxCell>
        <mxCell id="15li7BkHGeq0RY40I_Cv-9" value="&lt;b&gt;key 1&lt;/b&gt;: allow" style="text;strokeColor=none;fillColor=none;align=left;verticalAlign=middle;spacingLeft=4;spacingRight=4;overflow=hidden;points=[[0,0.5],[1,0.5]];portConstraint=eastwest;rotatable=0;whiteSpace=wrap;html=1;" vertex="1" parent="15li7BkHGeq0RY40I_Cv-7">
          <mxGeometry y="60" width="140" height="30" as="geometry" />
        </mxCell>
        <mxCell id="15li7BkHGeq0RY40I_Cv-10" value="&lt;b&gt;key 2&lt;/b&gt;: deny write" style="text;strokeColor=none;fillColor=none;align=left;verticalAlign=middle;spacingLeft=4;spacingRight=4;overflow=hidden;points=[[0,0.5],[1,0.5]];portConstraint=eastwest;rotatable=0;whiteSpace=wrap;html=1;" vertex="1" parent="15li7BkHGeq0RY40I_Cv-7">
          <mxGeometry y="90" width="140" height="30" as="geometry" />
        </mxCell>
        <mxCell id="15li7BkHGeq0RY40I_Cv-13" style="edgeStyle=orthogonalEdgeStyle;rounded=0;orthogonalLoop=1;jettySize=auto;html=1;exitX=1;exitY=0.25;exitDx=0;exitDy=0;entryX=0;entryY=0.5;entryDx=0;entryDy=0;strokeColor=#009900;" edge="1" parent="1" source="15li7BkHGeq0RY40I_Cv-11" target="15li7BkHGeq0RY40I_Cv-3">
          <mxGeometry relative="1" as="geometry" />
        </mxCell>
        <mxCell id="15li7BkHGeq0RY40I_Cv-22" style="edgeStyle=orthogonalEdgeStyle;rounded=0;orthogonalLoop=1;jettySize=auto;html=1;exitX=1.012;exitY=0.374;exitDx=0;exitDy=0;entryX=0;entryY=0.5;entryDx=0;entryDy=0;exitPerimeter=0;strokeColor=#FF0000;" edge="1" parent="1" source="15li7BkHGeq0RY40I_Cv-11" target="15li7BkHGeq0RY40I_Cv-4">
          <mxGeometry relative="1" as="geometry">
            <Array as="points">
              <mxPoint x="190" y="386" />
              <mxPoint x="190" y="395" />
            </Array>
          </mxGeometry>
        </mxCell>
        <mxCell id="15li7BkHGeq0RY40I_Cv-26" style="edgeStyle=orthogonalEdgeStyle;rounded=0;orthogonalLoop=1;jettySize=auto;html=1;exitX=1;exitY=0.5;exitDx=0;exitDy=0;entryX=0;entryY=0.5;entryDx=0;entryDy=0;strokeColor=#FF0000;" edge="1" parent="1" source="15li7BkHGeq0RY40I_Cv-11" target="15li7BkHGeq0RY40I_Cv-5">
          <mxGeometry relative="1" as="geometry">
            <Array as="points">
              <mxPoint x="180" y="395" />
              <mxPoint x="180" y="425" />
            </Array>
          </mxGeometry>
        </mxCell>
        <mxCell id="15li7BkHGeq0RY40I_Cv-11" value="&lt;b&gt;Application&lt;/b&gt;" style="rounded=0;whiteSpace=wrap;html=1;" vertex="1" parent="1">
          <mxGeometry x="70" y="360" width="80" height="70" as="geometry" />
        </mxCell>
        <mxCell id="15li7BkHGeq0RY40I_Cv-12" value="&lt;b&gt;Physical Memory&lt;br&gt;&lt;/b&gt;" style="rounded=0;whiteSpace=wrap;html=1;" vertex="1" parent="1">
          <mxGeometry x="610" y="310" width="110" height="180" as="geometry" />
        </mxCell>
        <mxCell id="15li7BkHGeq0RY40I_Cv-14" style="edgeStyle=orthogonalEdgeStyle;rounded=0;orthogonalLoop=1;jettySize=auto;html=1;exitX=1;exitY=0.5;exitDx=0;exitDy=0;entryX=-0.007;entryY=0.385;entryDx=0;entryDy=0;strokeColor=#009900;entryPerimeter=0;" edge="1" parent="1" source="15li7BkHGeq0RY40I_Cv-3" target="15li7BkHGeq0RY40I_Cv-8">
          <mxGeometry relative="1" as="geometry" />
        </mxCell>
        <mxCell id="15li7BkHGeq0RY40I_Cv-23" style="edgeStyle=orthogonalEdgeStyle;rounded=0;orthogonalLoop=1;jettySize=auto;html=1;exitX=1;exitY=0.5;exitDx=0;exitDy=0;entryX=-0.003;entryY=0.681;entryDx=0;entryDy=0;entryPerimeter=0;strokeColor=#FF0000;" edge="1" parent="1" source="15li7BkHGeq0RY40I_Cv-4" target="15li7BkHGeq0RY40I_Cv-8">
          <mxGeometry relative="1" as="geometry" />
        </mxCell>
        <mxCell id="15li7BkHGeq0RY40I_Cv-16" value="" style="verticalLabelPosition=bottom;verticalAlign=top;html=1;shape=mxgraph.basic.x;fillColor=#FF0000;" vertex="1" parent="1">
          <mxGeometry x="570" y="435" width="20" height="20" as="geometry" />
        </mxCell>
        <mxCell id="15li7BkHGeq0RY40I_Cv-27" style="edgeStyle=orthogonalEdgeStyle;rounded=0;orthogonalLoop=1;jettySize=auto;html=1;exitX=1;exitY=0.5;exitDx=0;exitDy=0;entryX=0;entryY=0.5;entryDx=0;entryDy=0;strokeColor=#FF0000;" edge="1" parent="1" source="15li7BkHGeq0RY40I_Cv-5" target="15li7BkHGeq0RY40I_Cv-9">
          <mxGeometry relative="1" as="geometry" />
        </mxCell>
        <mxCell id="15li7BkHGeq0RY40I_Cv-31" style="edgeStyle=orthogonalEdgeStyle;rounded=0;orthogonalLoop=1;jettySize=auto;html=1;exitX=1;exitY=0.642;exitDx=0;exitDy=0;exitPerimeter=0;entryX=0.003;entryY=0.33;entryDx=0;entryDy=0;entryPerimeter=0;strokeColor=#009900;" edge="1" parent="1" source="15li7BkHGeq0RY40I_Cv-11" target="15li7BkHGeq0RY40I_Cv-6">
          <mxGeometry relative="1" as="geometry">
            <mxPoint x="160" y="410" as="sourcePoint" />
            <mxPoint x="209" y="450" as="targetPoint" />
            <Array as="points">
              <mxPoint x="170" y="405" />
              <mxPoint x="170" y="450" />
              <mxPoint x="209" y="450" />
            </Array>
          </mxGeometry>
        </mxCell>
        <mxCell id="15li7BkHGeq0RY40I_Cv-32" style="edgeStyle=orthogonalEdgeStyle;rounded=0;orthogonalLoop=1;jettySize=auto;html=1;exitX=1;exitY=0.75;exitDx=0;exitDy=0;entryX=0.003;entryY=0.64;entryDx=0;entryDy=0;entryPerimeter=0;strokeColor=#FF0000;" edge="1" parent="1" source="15li7BkHGeq0RY40I_Cv-11" target="15li7BkHGeq0RY40I_Cv-6">
          <mxGeometry relative="1" as="geometry">
            <mxPoint x="200" y="460" as="targetPoint" />
            <Array as="points">
              <mxPoint x="160" y="413" />
              <mxPoint x="160" y="460" />
              <mxPoint x="211" y="460" />
            </Array>
          </mxGeometry>
        </mxCell>
        <mxCell id="15li7BkHGeq0RY40I_Cv-33" style="edgeStyle=orthogonalEdgeStyle;rounded=0;orthogonalLoop=1;jettySize=auto;html=1;exitX=0.999;exitY=0.308;exitDx=0;exitDy=0;entryX=-0.002;entryY=0.351;entryDx=0;entryDy=0;entryPerimeter=0;exitPerimeter=0;strokeColor=#009900;" edge="1" parent="1" source="15li7BkHGeq0RY40I_Cv-6" target="15li7BkHGeq0RY40I_Cv-10">
          <mxGeometry relative="1" as="geometry">
            <Array as="points">
              <mxPoint x="380" y="449" />
              <mxPoint x="380" y="435" />
            </Array>
          </mxGeometry>
        </mxCell>
        <mxCell id="15li7BkHGeq0RY40I_Cv-34" style="edgeStyle=orthogonalEdgeStyle;rounded=0;orthogonalLoop=1;jettySize=auto;html=1;exitX=1;exitY=0.5;exitDx=0;exitDy=0;entryX=-0.002;entryY=0.684;entryDx=0;entryDy=0;entryPerimeter=0;strokeColor=#FF0000;" edge="1" parent="1" source="15li7BkHGeq0RY40I_Cv-6" target="15li7BkHGeq0RY40I_Cv-10">
          <mxGeometry relative="1" as="geometry">
            <Array as="points">
              <mxPoint x="390" y="455" />
              <mxPoint x="390" y="445" />
            </Array>
          </mxGeometry>
        </mxCell>
        <mxCell id="15li7BkHGeq0RY40I_Cv-37" value="" style="verticalLabelPosition=bottom;verticalAlign=top;html=1;shape=mxgraph.basic.x;fillColor=#FF0000;" vertex="1" parent="1">
          <mxGeometry x="570" y="370" width="20" height="20" as="geometry" />
        </mxCell>
      </root>
    </mxGraphModel>
  </diagram>
</mxfile>
